<svg id="Calque_1" data-name="Calque 1" xmlns="http://www.w3.org/2000/svg" viewBox="0 0 110.39 101.94"><title>HOME</title><path d="M665.79,446a2,2,0,0,0-.38-2.8l-17.13-13.08a4.55,4.55,0,0,1-1.59-3.21V405.27a2,2,0,0,0-2-2H634.18a2,2,0,0,0-2,2v10.57c0,1.1-.72,1.45-1.59.78l-18-13.74a2.8,2.8,0,0,0-3.18,0L556.59,443.2a2,2,0,0,0-.38,2.81l6.38,8.36a2,2,0,0,0,2.8.37l2.86-2.18c.87-.66,1.59-.31,1.59.79v49a2,2,0,0,0,2,2h78.32a2,2,0,0,0,2-2v-49c0-1.1.72-1.45,1.59-.78l2.85,2.17a2,2,0,0,0,2.81-.37ZM644.1,494.26a2,2,0,0,1-2,2H627.51a2,2,0,0,1-2-2V467.63a2,2,0,0,0-2-2h-25a2,2,0,0,0-2,2v26.63a2,2,0,0,1-2,2H579.9a2,2,0,0,1-2-2v-46a4.57,4.57,0,0,1,1.59-3.21l29.92-22.85a2.77,2.77,0,0,1,3.18,0L642.51,445a4.53,4.53,0,0,1,1.59,3.21Z" transform="translate(-555.81 -402.38)"/></svg>