<svg id="Calque_1" data-name="Calque 1" xmlns="http://www.w3.org/2000/svg" xmlns:xlink="http://www.w3.org/1999/xlink" viewBox="0 0 314.84 328.33"><defs><style>.cls-1{stroke:#000;stroke-miterlimit:10;}</style><symbol id="Vidéo" data-name="Vidéo" viewBox="0 0 64.57 65.62"><path d="M63.93,58.51c-.83.08-1.57.11-2.24.11-3.38,0-4.65-.82-5.16-1.34a3.11,3.11,0,0,1-.76-2.3A8.31,8.31,0,0,1,56,53.15a32,32,0,1,0-6.57,5.68,9.35,9.35,0,0,0,2.13,3.38c2.22,2.25,5.63,3.41,10,3.41h.08c.91,0,1.86,0,2.88-.13ZM14.5,41c-4.35,0-7.87-4-7.87-9s3.52-9,7.87-9,7.87,4,7.87,9S18.85,41,14.5,41ZM32,57.38c-5,0-9-3.53-9-7.88s4-7.88,9-7.88,9,3.53,9,7.88S37,57.38,32,57.38ZM27.67,32A4.33,4.33,0,1,1,32,36.33,4.33,4.33,0,0,1,27.67,32ZM32,22.38c-5,0-9-3.53-9-7.88s4-7.88,9-7.88,9,3.53,9,7.88S37,22.38,32,22.38ZM41.62,32c0-5,3.53-9,7.88-9s7.88,4,7.88,9-3.53,9-7.88,9S41.62,37,41.62,32Z"/></symbol></defs><title>PARAMÈTRES</title><use width="64.57" height="65.62" transform="translate(175.63 190.17) scale(1.96)" xlink:href="#Vidéo"/><rect class="cls-1" x="606.5" y="402.5" width="19" height="14" transform="translate(-537.69 228.97) rotate(-36.05)"/><rect class="cls-1" x="642.5" y="390.5" width="19" height="14" transform="translate(-439.13 -168.78) rotate(-3.73)"/><rect class="cls-1" x="678.5" y="400.5" width="19" height="14" transform="translate(-91.19 -516.22) rotate(32.24)"/><rect class="cls-1" x="582.5" y="430.5" width="19" height="14" transform="translate(-458.56 596.31) rotate(-66.71)"/><rect class="cls-1" x="576.5" y="468.5" width="19" height="14" transform="translate(-265.07 879.16) rotate(-93.73)"/><rect class="cls-1" x="705.5" y="427.5" width="19" height="14" transform="translate(227.64 1056) rotate(-116.3)"/><rect class="cls-1" x="711.5" y="465.5" width="19" height="14" transform="translate(-239.41 927.77) rotate(-83.96)"/><rect class="cls-1" x="630.86" y="524.83" width="19" height="14" transform="translate(806.53 916.08) rotate(-173.96)"/><rect class="cls-1" x="593.86" y="505.83" width="19" height="14" transform="translate(252.7 1090.09) rotate(-135)"/><use width="64.57" height="65.62" transform="translate(206.54 215.37) rotate(-176.75) scale(3)" xlink:href="#Vidéo"/><rect class="cls-1" x="568.18" y="403.31" width="29" height="21.37" transform="translate(882.06 234.31) rotate(147.2)"/><rect class="cls-1" x="512.28" y="418.48" width="29" height="21.37" transform="translate(642.45 641.94) rotate(179.52)"/><rect class="cls-1" x="458.29" y="400.13" width="29" height="21.37" transform="translate(204.54 807.78) rotate(-144.51)"/><rect class="cls-1" x="607.18" y="362.72" width="29" height="21.37" transform="translate(818.84 -227.95) rotate(116.54)"/><rect class="cls-1" x="619.61" y="305.33" width="29" height="21.37" transform="translate(530.18 -532.71) rotate(89.52)"/><rect class="cls-1" x="419.48" y="356.65" width="29" height="21.37" transform="matrix(0.39, 0.92, -0.92, 0.39, 187.39, -387.84)"/><rect class="cls-1" x="413.63" y="298.22" width="29" height="21.37" transform="translate(387.43 -275.74) rotate(99.29)"/><rect class="cls-1" x="541.65" y="214.78" width="29" height="21.37" transform="translate(-370.97 -298.85) rotate(9.29)"/><rect class="cls-1" x="596.39" y="246.94" width="29" height="21.37" transform="matrix(0.67, 0.75, -0.75, 0.67, -18.34, -581.7)"/></svg>