<svg id="Calque_1" data-name="Calque 1" xmlns="http://www.w3.org/2000/svg" viewBox="0 0 257 267"><defs><style>.cls-1,.cls-2,.cls-5,.cls-6{stroke:#000;}.cls-1,.cls-2,.cls-4,.cls-5,.cls-6,.cls-7{stroke-miterlimit:10;}.cls-1,.cls-2{stroke-width:4px;}.cls-2,.cls-4,.cls-5{fill:none;}.cls-3,.cls-7{fill:#7ac943;}.cls-4,.cls-7{stroke:#7ac943;stroke-width:2px;}</style></defs><title>SAVE5</title><path class="cls-1" d="M430,238" transform="translate(-428 -260)"/><line class="cls-1" x1="95" y1="2" x2="95" y2="2"/><path d="M597,332" transform="translate(-428 -260)"/><path class="cls-2" d="M597,332" transform="translate(-428 -260)"/><path class="cls-2" d="M523,495H450c-11,0-20,6.75-20,15s9,15,20,15H663c11,0,20-6.75,20-15s-9-15-20-15H597" transform="translate(-428 -260)"/><path class="cls-3" d="M582.28,481.21c3.29-5.71.59-10.4-6-10.41l-32-.05c-6.6,0-9.3,4.65-6,10.37l16,27.76c3.3,5.72,8.7,5.72,12,0Z" transform="translate(-428 -260)"/><path class="cls-4" d="M582.28,481.21c3.29-5.71.59-10.4-6-10.41l-32-.05c-6.6,0-9.3,4.65-6,10.37l16,27.76c3.3,5.72,8.7,5.72,12,0Z" transform="translate(-428 -260)"/><rect class="cls-5" x="217" y="246" width="9" height="9" rx="4.5" ry="4.5"/><rect class="cls-6" x="233" y="246" width="9" height="9" rx="4.5" ry="4.5"/><rect class="cls-7" x="120.5" y="181.5" width="23" height="34" rx="7.09" ry="7.09"/></svg>