<!DOCTYPE svg PUBLIC "-//W3C//DTD SVG 20010904//EN" "http://www.w3.org/TR/2001/REC-SVG-20010904/DTD/svg10.dtd">
<svg version="1.0" xmlns="http://www.w3.org/2000/svg" width="224px" height="205px" viewBox="0 0 2240 2050" preserveAspectRatio="xMidYMid meet">
    <g fill="#000000" stroke="none">
        <path d="M340 1630 l0 -40 217 -2 217 -3 -69 -50 c-88 -65 -156 -148 -210 -260 -53 -110 -69 -180 -68 -310 1 -186 68 -343 202 -475 120 -118 239 -177 405 -201 278 -39 586 129 707 386 189 400 -29 868 -455 975 -73 18 -113 20 -513 20 l-433 0 0 -40z m592 -236 c80 -41 107 -156 54 -237 -22 -32 -91 -67 -136 -67 -51 0 -115 42 -139 93 -24 50 -26 85 -7 130 39 90 138 126 228 81z m552 -3 c113 -63 100 -235 -21 -287 -45 -19 -87 -17 -133 6 -80 41 -111 132 -71 212 44 89 139 118 225 69z m-307 -353 c67 -63 -15 -176 -97 -133 -79 41 -52 155 37 155 24 0 45 -8 60 -22z m-281 -179 c81 -21 133 -110 114 -194 -12 -51 -73 -111 -125 -121 -108 -20 -211 83 -191 191 12 61 84 127 149 134 5 1 28 -4 53 -10z m557 -3 c71 -26 109 -78 109 -151 0 -121 -120 -197 -228 -145 -102 50 -123 179 -43 259 47 47 99 59 162 37z"/>
    </g>
</svg>