<?xml version="1.0" encoding="UTF-8"?>
<svg id="Layer_1" data-name="Layer 1" xmlns="http://www.w3.org/2000/svg" viewBox="0 0 554.98 64.14">
  <defs>
    <style>
      .cls-1 {
        fill: #486ee5;
      }

      .cls-2 {
        fill: #fff;
      }
    </style>
  </defs>
  <g>
    <path class="cls-1" d="M37.25,10.14H8.77v12.94h25.24v7.98H8.77v13.45h28.83v7.98s-37.61,0-37.61,0V2.16h37.25v7.98Z"/>
    <path class="cls-1" d="M70.4,52.49v-4.67c-1.29,1.53-2.95,2.83-4.96,3.88s-4.46,1.58-7.33,1.58c-1.82,0-3.55-.25-5.18-.76s-3.06-1.25-4.28-2.23c-1.22-.98-2.21-2.21-2.95-3.67s-1.11-3.15-1.11-5.07v-.14c0-2.06.38-3.86,1.15-5.39.77-1.53,1.83-2.8,3.2-3.81,1.37-1.01,2.99-1.76,4.89-2.27,1.89-.5,3.94-.76,6.15-.76s4.25.14,5.86.43c1.61.29,3.15.67,4.64,1.15v-.94c0-2.64-.8-4.65-2.41-6.04-1.61-1.39-3.92-2.08-6.94-2.08-2.16,0-4.07.21-5.75.65l-5.23,1.35-2.24-6.6c2.11-.96,4.27-1.73,6.47-2.3,2.2-.58,4.86-.86,7.98-.86,5.66,0,9.85,1.4,12.58,4.21,2.73,2.8,4.1,6.75,4.1,11.83v22.51h-8.63ZM70.61,36.38c-1.1-.43-2.41-.79-3.92-1.08-1.51-.29-3.1-.43-4.78-.43-2.73,0-4.87.53-6.4,1.58-1.53,1.06-2.3,2.56-2.3,4.53v.14c0,1.82.71,3.21,2.12,4.17,1.41.96,3.15,1.44,5.21,1.44,1.44,0,2.77-.19,3.99-.58,1.22-.38,2.29-.92,3.2-1.62.91-.69,1.62-1.53,2.12-2.52.5-.98.76-2.07.76-3.27v-2.37Z"/>
    <path class="cls-1" d="M121.38,59.47c-3.55,3.12-8.58,4.68-15.1,4.68s-11.98-1.51-16.97-4.53l3.24-6.55c2.01,1.25,4.12,2.23,6.33,2.95,2.21.72,4.6,1.08,7.19,1.08,3.88,0,6.86-.99,8.92-2.96s3.09-4.89,3.09-8.74v-2.96c-1.58,2.08-3.43,3.78-5.54,5.08-2.11,1.31-4.72,1.96-7.84,1.96-2.25,0-4.41-.4-6.47-1.19-2.06-.79-3.9-1.95-5.5-3.49-1.61-1.53-2.89-3.4-3.85-5.61s-1.44-4.72-1.44-7.55.48-5.34,1.44-7.55,2.24-4.07,3.85-5.61c1.61-1.53,3.45-2.71,5.54-3.52,2.08-.82,4.23-1.22,6.44-1.22,3.21,0,5.86.64,7.95,1.93,2.09,1.28,3.87,2.82,5.36,4.61v-5.74h8.7v30.2c0,6.71-1.77,11.62-5.32,14.74ZM117.25,27.32c-.6-1.31-1.4-2.42-2.41-3.32-1.01-.91-2.19-1.61-3.56-2.11-1.37-.5-2.79-.75-4.28-.75s-2.95.25-4.24.75c-1.29.5-2.43,1.2-3.41,2.11-.98.9-1.75,2-2.3,3.28-.55,1.29-.83,2.71-.83,4.28s.29,3,.86,4.29c.58,1.29,1.34,2.39,2.3,3.32.96.93,2.1,1.64,3.41,2.14,1.32.5,2.72.75,4.21.75s2.91-.25,4.28-.75c1.37-.5,2.55-1.21,3.56-2.14,1.01-.93,1.81-2.02,2.41-3.29s.9-2.68.9-4.25-.3-3.01-.9-4.32Z"/>
    <path class="cls-1" d="M138.06,52.49V0s8.77,0,8.77,0v52.49h-8.77Z"/>
    <path class="cls-1" d="M168.48,43.76c1.96,1.65,4.36,2.48,7.19,2.48,2.16,0,4.03-.38,5.61-1.15l5.47-2.67,4.31,3.82c-1.82,2.16-3.99,3.88-6.51,5.18-2.52,1.29-5.53,1.94-9.02,1.94-2.73,0-5.29-.48-7.66-1.44-2.37-.96-4.43-2.3-6.18-4.03-1.75-1.72-3.13-3.8-4.13-6.22-1.01-2.42-1.51-5.12-1.51-8.09,0-2.73.45-5.3,1.37-7.69s2.19-4.49,3.85-6.29c1.65-1.8,3.61-3.22,5.86-4.28s4.75-1.58,7.48-1.58c3.02,0,5.67.55,7.95,1.65,2.28,1.1,4.17,2.59,5.68,4.46s2.65,4.05,3.42,6.54c.77,2.5,1.15,5.11,1.15,7.84,0,.39-.01.77-.03,1.15-.03.38-.06.79-.11,1.22h-27.9c.53,3.12,1.77,5.5,3.74,7.16ZM184.15,30.85c-.14-1.39-.46-2.69-.93-3.92-.48-1.22-1.13-2.28-1.94-3.16-.82-.89-1.79-1.59-2.91-2.12-1.13-.53-2.41-.79-3.85-.79-2.69,0-4.9.92-6.65,2.77-1.75,1.85-2.82,4.26-3.2,7.23h19.49Z"/>
  </g>
  <g>
    <path class="cls-2" d="M245.64,52.49l-6.4-14.09h-29.7l-6.4,14.09h-3.88S222.7,1.8,222.7,1.8h3.6l23.44,50.69h-4.1ZM224.42,5.9l-13.3,29.12h26.53l-13.23-29.12Z"/>
    <path class="cls-2" d="M287.48,52.49v-21.79c0-3.79-1.01-6.82-3.02-9.1-2.01-2.27-4.89-3.41-8.63-3.41-1.82,0-3.5.32-5.03.97s-2.88,1.55-4.03,2.7-2.05,2.53-2.7,4.14c-.65,1.6-.97,3.37-.97,5.28v21.21h-3.52s0-36.67,0-36.67h3.52v6.83c1.25-2.16,2.92-3.98,5.03-5.47,2.11-1.49,4.84-2.23,8.2-2.23,2.3,0,4.36.37,6.18,1.11,1.82.74,3.37,1.79,4.64,3.13,1.27,1.34,2.23,2.94,2.88,4.78.65,1.85.97,3.87.97,6.08v22.43h-3.52Z"/>
    <path class="cls-2" d="M303.74,6.26V1.44h4.39s0,4.82,0,4.82h-4.39ZM304.17,52.49V15.82s3.52,0,3.52,0v36.67h-3.52Z"/>
    <path class="cls-2" d="M373.49,52.49v-21.79c0-3.98-.96-7.06-2.88-9.24-1.92-2.18-4.58-3.27-7.98-3.27-1.53,0-3.01.29-4.42.86-1.41.58-2.65,1.42-3.7,2.52-1.05,1.11-1.89,2.46-2.52,4.06-.62,1.61-.93,3.44-.93,5.5v21.36h-3.52v-22c0-3.83-.96-6.84-2.88-9.02-1.92-2.18-4.53-3.27-7.84-3.27-1.63,0-3.16.34-4.6,1.01-1.44.67-2.69,1.61-3.74,2.8-1.06,1.2-1.88,2.59-2.48,4.17s-.9,3.31-.9,5.18v21.14s-3.52,0-3.52,0V15.82h3.52v6.54c.58-.96,1.23-1.88,1.98-2.77s1.59-1.68,2.55-2.37c.96-.69,2.07-1.25,3.34-1.65,1.27-.41,2.72-.61,4.35-.61s3.03.21,4.35.65,2.48,1.01,3.49,1.73c1.01.72,1.88,1.56,2.62,2.52.74.96,1.38,1.97,1.91,3.02.58-1.01,1.27-1.99,2.09-2.95.81-.96,1.76-1.81,2.84-2.55,1.08-.74,2.3-1.33,3.67-1.76,1.37-.43,2.91-.65,4.64-.65,2.16,0,4.11.37,5.86,1.11,1.75.74,3.24,1.77,4.46,3.09,1.22,1.32,2.16,2.92,2.8,4.82.65,1.89.97,3.99.97,6.29v22.22s-3.52,0-3.52,0Z"/>
    <path class="cls-2" d="M415.12,52.49v-6.11c-.62.86-1.38,1.72-2.27,2.56-.89.84-1.9,1.58-3.06,2.23-1.15.65-2.46,1.18-3.92,1.58-1.46.41-3.06.61-4.78.61s-3.43-.24-5.11-.72c-1.68-.48-3.19-1.2-4.53-2.16-1.34-.96-2.43-2.16-3.27-3.59s-1.26-3.11-1.26-5.03v-.14c0-1.92.4-3.62,1.19-5.1s1.88-2.73,3.27-3.74c1.39-1.01,3.07-1.77,5.03-2.3,1.96-.53,4.15-.79,6.54-.79,2.59,0,4.82.14,6.69.43,1.87.29,3.69.67,5.46,1.15v-1.57c0-3.72-1.07-6.51-3.2-8.36-2.13-1.86-5.09-2.79-8.88-2.79-2.25,0-4.31.28-6.18.83-1.87.55-3.64,1.26-5.32,2.12l-1.29-3.09c2.01-.98,4.05-1.76,6.11-2.35s4.36-.88,6.9-.88c4.75,0,8.48,1.2,11.22,3.6,2.73,2.4,4.1,5.99,4.1,10.79v22.87h-3.45ZM415.19,34.58c-1.54-.38-3.33-.75-5.39-1.11-2.06-.36-4.41-.54-7.05-.54-3.88,0-6.87.78-8.95,2.33-2.09,1.55-3.13,3.61-3.13,6.19v.14c0,1.34.29,2.52.86,3.55s1.35,1.9,2.34,2.61c.98.72,2.12,1.27,3.41,1.65,1.29.38,2.64.57,4.03.57,1.87,0,3.64-.27,5.32-.82,1.68-.55,3.15-1.31,4.42-2.29s2.28-2.16,3.02-3.55c.74-1.38,1.11-2.91,1.11-4.58v-4.15Z"/>
    <path class="cls-2" d="M446.22,52.82c-.93.22-1.98.32-3.13.32-1.44,0-2.78-.19-4.03-.57-1.25-.38-2.34-.99-3.27-1.83s-1.67-1.89-2.19-3.17c-.53-1.27-.79-2.77-.79-4.49v-24.02h-5.32v-3.24h5.32V4.1s3.52,0,3.52,0v11.72h12.87v3.24h-12.87v23.6c0,2.63.68,4.47,2.05,5.52,1.37,1.05,3.13,1.58,5.29,1.58.91,0,1.77-.09,2.59-.27.81-.18,1.75-.5,2.8-.95v3.62l-2.84.65Z"/>
    <path class="cls-2" d="M459.7,6.26V1.44s4.39,0,4.39,0v4.82h-4.39ZM460.13,52.49V15.82s3.52,0,3.52,0v36.67h-3.52Z"/>
    <path class="cls-2" d="M499.01,53.07c-2.26,0-4.54-.6-6.58-1.83-2.6-1.57-4.24-3.8-4.5-6.13-.22-1.95.51-3.78,2.1-5.32,1.51-1.45,3.54-2.3,5.72-2.39,1.05-.04,1.91-.02,2.64.45,0-.02-.01-.04-.02-.05-.56-1.7-4.2-2.89-5.4-3.28l-.31-.1-.21-.25c-1.18-1.39-3.04-2.19-5.23-2.25-2.76-.08-5.56,1.04-7.31,2.91-.44.47-.92.84-1.44,1.11-1.36.7-2.33.51-2.9.23-.58-.28-1.32-.94-1.59-2.44-.22-1.2-.15-2.49.18-3.73,2.37-8.81,10.39-14.93,19.51-14.93h.12c11.08.07,20.09,9.14,20.08,20.22,0,4.84-1.75,9.52-4.91,13.18-2.6,3-6.26,4.59-9.95,4.59ZM496.48,39.68c-.18,0-.39,0-.65.02-1.61.06-3.11.68-4.21,1.75-1.07,1.03-1.55,2.18-1.41,3.4.18,1.61,1.42,3.22,3.4,4.42,4.43,2.67,10.15,1.7,13.61-2.3,2.8-3.24,4.35-7.39,4.35-11.68,0-9.82-7.97-17.86-17.79-17.92h0s-.07,0-.11,0c-8.09,0-15.18,5.43-17.29,13.23-.25.91-.29,1.85-.14,2.72.1.54.27.75.35.79.08.04.34.04.83-.21.28-.14.55-.36.82-.64,2.19-2.33,5.65-3.71,9.05-3.63,2.73.07,5.09,1.07,6.7,2.81,2.7.9,5.78,2.25,6.57,4.64.41,1.25.15,2.56-.8,3.89l-1.19,1.68-.8-1.9c-.38-.9-.49-1.06-1.27-1.06Z"/>
    <path class="cls-2" d="M551.46,52.49v-21.79c0-3.79-1.01-6.82-3.02-9.1-2.01-2.27-4.89-3.41-8.63-3.41-1.82,0-3.5.32-5.03.97s-2.88,1.55-4.03,2.7-2.05,2.53-2.7,4.14c-.65,1.6-.97,3.37-.97,5.28v21.21s-3.52,0-3.52,0V15.82h3.52v6.83c1.25-2.16,2.92-3.98,5.03-5.47,2.11-1.49,4.84-2.23,8.2-2.23,2.3,0,4.36.37,6.18,1.11,1.82.74,3.37,1.79,4.64,3.13,1.27,1.34,2.23,2.94,2.88,4.78.65,1.85.97,3.87.97,6.08v22.43h-3.52Z"/>
  </g>
</svg>