<?xml version="1.0" standalone="no"?>
<!DOCTYPE svg PUBLIC "-//W3C//DTD SVG 20010904//EN"
 "http://www.w3.org/TR/2001/REC-SVG-20010904/DTD/svg10.dtd">
<svg version="1.0" xmlns="http://www.w3.org/2000/svg"
 width="896.000000pt" height="896.000000pt" viewBox="0 0 896.000000 896.000000"
 preserveAspectRatio="xMidYMid meet">
<metadata>
Created by potrace 1.11, written by Peter Selinger 2001-2013
</metadata>
<g transform="translate(0.000000,896.000000) scale(0.100000,-0.100000)"
fill="#000000" stroke="none">
<path d="M4295 7442 c-2 -2 -32 -6 -67 -8 -56 -4 -103 -10 -103 -14 0 0 -20
-3 -45 -6 -62 -7 -95 -12 -95 -14 0 -2 -19 -6 -65 -14 -19 -4 -43 -9 -52 -12
-9 -3 -27 -7 -40 -9 -19 -4 -49 -11 -90 -21 -5 -1 -10 -3 -13 -4 -3 -1 -8 -3
-12 -4 -5 -1 -35 -10 -68 -21 -33 -10 -63 -19 -67 -21 -5 -1 -9 -2 -10 -4 -2
-1 -10 -3 -18 -5 -22 -4 -165 -62 -240 -97 -36 -16 -65 -28 -65 -26 0 1 -13
-7 -29 -19 -16 -13 -33 -23 -37 -23 -15 0 -232 -136 -298 -187 -163 -124 -238
-190 -381 -334 -145 -147 -126 -126 -224 -249 -216 -271 -369 -558 -453 -850
-37 -127 -51 -180 -51 -185 -1 -3 -5 -29 -11 -58 -6 -28 -13 -68 -15 -87 -3
-19 -6 -35 -7 -35 -1 0 -3 -11 -4 -25 -1 -14 -6 -56 -10 -95 -13 -124 -14
-137 -14 -310 -1 -184 4 -311 14 -390 3 -27 8 -65 10 -82 4 -33 11 -78 20
-123 5 -28 34 -146 42 -170 2 -8 4 -15 3 -15 -2 0 62 -180 75 -210 7 -16 30
-68 50 -115 83 -188 181 -367 288 -522 34 -50 67 -98 72 -107 6 -9 19 -24 29
-33 10 -10 15 -18 11 -18 -5 0 -2 -6 6 -12 8 -7 44 -47 80 -88 90 -105 169
-183 285 -279 130 -109 133 -111 143 -111 5 0 11 -4 13 -8 1 -4 53 -43 113
-87 133 -95 129 -91 113 -93 -25 -3 -713 -12 -1208 -16 l-505 -5 -2 -48 c-3
-87 -3 -117 -3 -171 0 -29 -1 -56 -1 -60 -1 -4 -1 -15 0 -25 1 -18 50 -19
1609 -14 884 3 1639 8 1677 11 39 3 99 7 135 10 98 7 183 16 200 21 8 2 31 7
50 10 48 8 273 66 285 73 6 4 15 7 20 8 24 4 217 80 293 115 46 22 85 39 87
39 14 0 297 170 345 207 8 6 51 38 95 71 319 238 613 597 793 967 19 39 40 82
48 97 8 14 14 33 14 41 0 9 6 22 13 29 6 7 13 20 15 28 2 8 14 42 27 75 23 60
55 157 60 185 2 8 4 16 5 18 3 3 5 9 14 47 4 17 11 44 16 60 5 17 12 46 15 65
3 19 8 42 10 50 7 24 15 71 21 120 3 25 7 56 10 70 23 127 23 577 0 700 -2 14
-7 44 -10 67 -3 22 -8 52 -10 65 -3 12 -8 34 -10 48 -19 105 -76 323 -93 355
-6 11 -11 23 -11 28 -1 8 -28 89 -43 122 -4 11 -21 50 -38 88 -16 37 -27 67
-24 67 3 0 1 6 -5 13 -5 6 -33 57 -62 112 -29 55 -59 107 -66 116 -8 8 -14 21
-14 27 0 7 -4 12 -10 12 -5 0 -10 5 -10 10 0 12 -95 150 -135 197 -5 6 -21 25
-34 42 -80 105 -292 317 -401 401 -18 14 -47 37 -65 53 -18 15 -37 27 -43 27
-6 0 -12 4 -14 8 -4 11 -180 130 -238 161 -25 13 -52 30 -60 37 -21 18 -243
124 -355 169 -92 37 -252 93 -290 100 -11 2 -20 4 -20 5 0 1 -7 3 -50 14 -11
2 -40 9 -65 16 -25 6 -54 12 -65 14 -26 3 -105 17 -130 23 -11 2 -36 6 -55 8
-19 2 -64 7 -100 10 -70 8 -389 13 -395 7z m-780 -1036 c135 -18 289 -119 412
-269 29 -36 83 -127 83 -141 0 -8 4 -17 9 -20 4 -3 12 -20 15 -38 26 -119 27
-167 3 -315 -2 -12 -6 -26 -10 -29 -4 -4 -7 -14 -7 -21 0 -40 -139 -272 -163
-273 -4 0 -18 -11 -30 -24 -50 -54 -183 -120 -282 -140 -16 -4 -41 -9 -55 -12
-102 -23 -107 -23 -185 -7 -38 7 -149 55 -153 65 -2 4 -10 8 -18 8 -8 0 -14 3
-14 8 0 4 -13 13 -29 20 -26 12 -165 141 -201 187 -50 65 -91 149 -110 224
-24 92 -8 266 30 341 10 19 17 37 17 40 -6 20 80 139 147 205 66 66 99 90 176
127 52 26 115 50 140 54 25 3 53 9 62 13 18 7 101 5 163 -3z m2215 -10 c77
-14 220 -71 220 -88 0 -4 6 -8 13 -8 20 0 138 -116 175 -172 37 -54 87 -175
97 -233 10 -59 13 -215 4 -221 -5 -2 -6 -11 -3 -19 9 -21 -33 -151 -68 -215
-50 -90 -159 -189 -269 -242 -93 -46 -136 -61 -214 -74 -86 -15 -235 -5 -262
18 -7 6 -13 8 -13 4 0 -4 -19 4 -42 16 -24 12 -45 22 -48 23 -12 1 -98 67
-140 107 -86 81 -151 184 -186 295 -21 66 -27 244 -10 313 18 71 60 177 76
190 3 3 16 21 28 41 18 30 115 126 157 157 58 42 192 96 266 107 24 4 45 8 46
9 5 4 139 -2 173 -8z m-1163 -1417 c41 -13 78 -34 105 -58 9 -9 27 -26 40 -37
25 -24 76 -116 81 -149 1 -11 5 -24 8 -30 7 -14 4 -104 -6 -140 -10 -36 -56
-106 -93 -140 -104 -97 -305 -110 -427 -27 -22 15 -43 31 -47 37 -3 5 -16 21
-28 35 -19 22 -38 56 -45 83 -2 4 -3 8 -5 10 -13 16 -18 126 -8 167 20 80 31
101 80 152 41 44 151 113 166 104 4 -2 16 0 27 4 27 10 106 5 152 -11z m-1002
-789 c79 -25 192 -78 239 -113 77 -55 121 -98 150 -145 37 -61 69 -132 59
-132 -3 0 -1 -6 5 -12 9 -12 15 -36 28 -113 6 -40 6 -167 -1 -208 -17 -100
-77 -245 -122 -293 -13 -14 -23 -28 -23 -31 0 -5 -50 -53 -94 -90 -19 -16
-150 -84 -168 -87 -7 -1 -30 -8 -50 -15 -44 -15 -218 -30 -224 -19 -3 4 -12 4
-20 1 -8 -3 -45 2 -82 12 -156 42 -262 113 -374 253 -29 35 -95 184 -108 242
-26 113 -11 238 46 365 81 184 227 317 423 385 97 34 211 34 316 0z m2140 16
c190 -33 359 -151 452 -316 35 -63 69 -155 79 -220 12 -68 9 -211 -5 -257 -1
-2 -1 -6 -2 -10 -4 -29 -54 -141 -83 -187 -87 -137 -264 -254 -421 -280 -17
-2 -30 -5 -30 -6 0 -7 -149 -6 -190 1 -90 15 -99 18 -172 55 -81 41 -154 99
-203 160 -34 42 -81 114 -74 114 4 0 0 8 -8 18 -14 16 -50 101 -62 147 -19 70
-24 194 -11 257 12 57 39 143 48 149 5 3 9 13 10 21 5 29 78 127 137 181 83
77 210 145 307 163 12 2 31 8 42 12 22 8 137 7 186 -2z"/>
</g>
</svg>
