<?xml version="1.0" encoding="UTF-8"?>
<svg id="Layer_1" data-name="Layer 1" xmlns="http://www.w3.org/2000/svg" viewBox="0 0 1141.32 1080">
  <path d="m568.33.01C306.53-1.58,76.49,173.36,8.08,426.07c-8.79,31.75-10.43,65.06-4.82,97.53,7.61,42.27,33.51,69.1,85.76,42.17,12.79-6.8,24.33-15.74,34.12-26.42,110.57-117.67,329.82-138.55,431.35-18.56,80.38,26.21,251.66,87.41,166.15,207.93-23.13-54.91-45.2-54.74-91.64-52.89-56.04,1.8-109.48,24.06-150.23,62.58-97.12,93.46-56.26,217.53,66.43,291.48,149.33,90,341.94,55.36,455.94-76.55,208.1-241.01,181.42-605.08-59.58-813.18C837.78,50.55,705.44.85,568.32.01h.01Z" style="fill: #fff; stroke-width: 0px;"/>
</svg>