<svg id="Layer_1" data-name="Layer 1" xmlns="http://www.w3.org/2000/svg" viewBox="0 0 554.979 253.444"><defs><style>.cls-1{fill:#fff;}.cls-2{fill:#486ee5;}</style></defs><title>LOGO_1</title><path class="cls-1" d="M259.759,572.719H231.284V585.66h25.238v7.984H231.284v13.447h28.834v7.981H222.511V564.737h37.248Z" transform="translate(-222.511 -373.278)"/><path class="cls-1" d="M292.908,615.072V610.4a16.244,16.244,0,0,1-4.961,3.881,15.635,15.635,0,0,1-7.334,1.583,17.434,17.434,0,0,1-5.179-.755,12.779,12.779,0,0,1-4.277-2.229,10.827,10.827,0,0,1-4.064-8.739V604a11.936,11.936,0,0,1,1.151-5.394,10.482,10.482,0,0,1,3.2-3.809,14.306,14.306,0,0,1,4.89-2.266,23.832,23.832,0,0,1,6.147-.755,33.659,33.659,0,0,1,5.862.432,35.28,35.28,0,0,1,4.638,1.151v-.937a7.563,7.563,0,0,0-2.409-6.041q-2.411-2.084-6.94-2.084a23.161,23.161,0,0,0-5.753.646,37.683,37.683,0,0,0-5.1,1.728l-2.373-6.976a39.991,39.991,0,0,1,6.472-2.3,31.994,31.994,0,0,1,7.981-.862q8.486,0,12.584,4.208t4.1,11.828v22.507Zm.216-16.109a22.732,22.732,0,0,0-3.919-1.078,25.58,25.58,0,0,0-4.781-.429,11.188,11.188,0,0,0-6.4,1.579,5.168,5.168,0,0,0-2.3,4.531v.145a4.724,4.724,0,0,0,2.12,4.169,9.068,9.068,0,0,0,5.214,1.441,13.287,13.287,0,0,0,3.991-.577,10.3,10.3,0,0,0,3.2-1.619,7.323,7.323,0,0,0,2.12-2.517,7.065,7.065,0,0,0,.755-3.271Z" transform="translate(-222.511 -373.278)"/><path class="cls-1" d="M343.891,622.046q-5.324,4.677-15.1,4.676a32.1,32.1,0,0,1-16.97-4.531l3.235-6.545a29.172,29.172,0,0,0,6.328,2.948,22.987,22.987,0,0,0,7.191,1.081q5.826,0,8.917-2.963t3.093-8.742v-2.963a20.5,20.5,0,0,1-5.537,5.084,14.618,14.618,0,0,1-7.838,1.96,17.882,17.882,0,0,1-6.472-1.187,16.391,16.391,0,0,1-5.5-3.486,17.067,17.067,0,0,1-3.847-5.609,20.552,20.552,0,0,1,0-15.1,17.067,17.067,0,0,1,3.847-5.609,16.816,16.816,0,0,1,5.538-3.524,17.527,17.527,0,0,1,6.436-1.223,14.932,14.932,0,0,1,7.945,1.926,21.562,21.562,0,0,1,5.357,4.609v-5.743h8.7v30.2Q349.212,617.374,343.891,622.046ZM339.756,589.9a9.929,9.929,0,0,0-2.409-3.319,10.82,10.82,0,0,0-3.559-2.109,12.4,12.4,0,0,0-4.279-.749,11.721,11.721,0,0,0-4.243.749,10.639,10.639,0,0,0-3.414,2.109,9.455,9.455,0,0,0-2.3,3.283,10.765,10.765,0,0,0-.826,4.283,10.365,10.365,0,0,0,.862,4.286,10.575,10.575,0,0,0,2.3,3.323A9.863,9.863,0,0,0,325.3,603.9a11.735,11.735,0,0,0,4.206.749,12.329,12.329,0,0,0,4.279-.749,10.447,10.447,0,0,0,5.968-5.428,9.782,9.782,0,0,0,.9-4.25A10.24,10.24,0,0,0,339.756,589.9Z" transform="translate(-222.511 -373.278)"/><path class="cls-1" d="M360.573,615.072V562.578h8.771v52.494Z" transform="translate(-222.511 -373.278)"/><path class="cls-1" d="M390.99,606.336a10.8,10.8,0,0,0,7.19,2.48,12.727,12.727,0,0,0,5.61-1.151,18.259,18.259,0,0,0,4.673-3.38l5.106,4.531a21.05,21.05,0,0,1-6.508,5.177,19.535,19.535,0,0,1-9.024,1.943,20.281,20.281,0,0,1-7.659-1.438,18.387,18.387,0,0,1-10.318-10.249,20.864,20.864,0,0,1-1.51-8.089,21.475,21.475,0,0,1,1.365-7.694,19.308,19.308,0,0,1,3.848-6.291,18.557,18.557,0,0,1,5.86-4.279,17.43,17.43,0,0,1,7.479-1.583,18.033,18.033,0,0,1,7.946,1.654,16.369,16.369,0,0,1,5.68,4.458,19.355,19.355,0,0,1,3.416,6.543,26.558,26.558,0,0,1,1.15,7.838c0,.387-.012.768-.035,1.151s-.062.792-.109,1.223h-27.9A11.463,11.463,0,0,0,390.99,606.336Zm15.675-12.91a14.861,14.861,0,0,0-.935-3.917,10.016,10.016,0,0,0-1.94-3.163,9.239,9.239,0,0,0-2.914-2.123,8.989,8.989,0,0,0-3.846-.792,8.769,8.769,0,0,0-6.652,2.77,12.512,12.512,0,0,0-3.2,7.225Z" transform="translate(-222.511 -373.278)"/><path class="cls-1" d="M468.146,615.072l-6.4-14.094h-29.7l-6.4,14.094h-3.883l23.442-50.7h3.6l23.441,50.7Zm-21.213-46.6L433.63,597.6h26.534Z" transform="translate(-222.511 -373.278)"/><path class="cls-1" d="M510,615.072V593.284a13.237,13.237,0,0,0-3.019-9.1q-3.022-3.411-8.63-3.413a12.83,12.83,0,0,0-5.034.97,12.489,12.489,0,0,0-4.026,2.7,12.208,12.208,0,0,0-2.7,4.135,13.988,13.988,0,0,0-.971,5.283v21.214H482.1V578.4h3.524v6.832a17.043,17.043,0,0,1,5.034-5.465,13.916,13.916,0,0,1,8.2-2.23,16.258,16.258,0,0,1,6.185,1.115,13.1,13.1,0,0,1,4.638,3.128,13.236,13.236,0,0,1,2.877,4.781,18.3,18.3,0,0,1,.97,6.078v22.434Z" transform="translate(-222.511 -373.278)"/><path class="cls-1" d="M526.247,568.836v-4.818h4.386v4.818Zm.431,46.236V578.4H530.2v36.673Z" transform="translate(-222.511 -373.278)"/><path class="cls-1" d="M596,615.072V593.284q0-5.967-2.877-9.24a10.071,10.071,0,0,0-7.982-3.271,11.648,11.648,0,0,0-4.422.861,10.664,10.664,0,0,0-3.7,2.516,12.2,12.2,0,0,0-2.516,4.063,15.116,15.116,0,0,0-.935,5.5v21.356h-3.524v-22q0-5.749-2.877-9.023a9.9,9.9,0,0,0-7.837-3.271,10.754,10.754,0,0,0-4.6,1.006,11.286,11.286,0,0,0-3.738,2.8,13.446,13.446,0,0,0-2.481,4.171,14.49,14.49,0,0,0-.9,5.178v21.141h-3.524V578.4H547.6v6.542a21.825,21.825,0,0,1,1.977-2.766,14.17,14.17,0,0,1,2.552-2.375,11.829,11.829,0,0,1,3.344-1.653,14.245,14.245,0,0,1,4.351-.611,13.907,13.907,0,0,1,4.35.647,12.86,12.86,0,0,1,3.489,1.726,12.512,12.512,0,0,1,2.623,2.516,18.351,18.351,0,0,1,1.906,3.021,19.573,19.573,0,0,1,2.086-2.948,14.462,14.462,0,0,1,2.841-2.553,13.675,13.675,0,0,1,3.667-1.762,15.356,15.356,0,0,1,4.638-.647,14.855,14.855,0,0,1,5.86,1.115,12.824,12.824,0,0,1,4.458,3.092,13.342,13.342,0,0,1,2.8,4.817,19.394,19.394,0,0,1,.971,6.292v22.22Z" transform="translate(-222.511 -373.278)"/><path class="cls-1" d="M637.63,615.072v-6.114a18.357,18.357,0,0,1-2.265,2.556,15.644,15.644,0,0,1-3.056,2.229,17.538,17.538,0,0,1-3.919,1.58,17.79,17.79,0,0,1-4.781.613,18.593,18.593,0,0,1-5.107-.719,14.6,14.6,0,0,1-4.529-2.16,11.438,11.438,0,0,1-3.273-3.594,9.814,9.814,0,0,1-1.258-5.033v-.145a10.707,10.707,0,0,1,1.187-5.105,10.86,10.86,0,0,1,3.271-3.739,15.266,15.266,0,0,1,5.034-2.3,25.333,25.333,0,0,1,6.544-.791,44.783,44.783,0,0,1,6.688.432,50.422,50.422,0,0,1,5.464,1.151v-1.574q0-5.577-3.2-8.364t-8.881-2.791a21.848,21.848,0,0,0-6.183.828,30.612,30.612,0,0,0-5.322,2.12l-1.294-3.093a37.351,37.351,0,0,1,6.112-2.352,25.171,25.171,0,0,1,6.9-.882q7.119,0,11.219,3.6t4.1,10.787v22.866Zm.073-17.912q-2.3-.571-5.394-1.109a41.382,41.382,0,0,0-7.047-.538q-5.824,0-8.953,2.329a7.336,7.336,0,0,0-3.128,6.193v.142a7.122,7.122,0,0,0,.863,3.546,8.108,8.108,0,0,0,2.338,2.613,11.042,11.042,0,0,0,3.415,1.646,14.119,14.119,0,0,0,4.028.574,16.98,16.98,0,0,0,5.32-.825,14.569,14.569,0,0,0,4.422-2.29,11.023,11.023,0,0,0,3.021-3.546,9.543,9.543,0,0,0,1.115-4.582Z" transform="translate(-222.511 -373.278)"/><path class="cls-1" d="M668.73,615.4a13.863,13.863,0,0,1-3.128.323,13.609,13.609,0,0,1-4.026-.574,8.436,8.436,0,0,1-5.466-5,11.667,11.667,0,0,1-.791-4.494V581.634H650V578.4h5.321V566.677h3.523V578.4h12.872v3.235H658.842v23.6q0,3.947,2.05,5.524a8.419,8.419,0,0,0,5.286,1.577,11.678,11.678,0,0,0,2.588-.272,16.147,16.147,0,0,0,2.805-.948v3.307A15.208,15.208,0,0,1,668.73,615.4Z" transform="translate(-222.511 -373.278)"/><path class="cls-1" d="M682.214,568.836v-4.818H686.6v4.818Zm.43,46.236V578.4h3.524v36.673Z" transform="translate(-222.511 -373.278)"/><path class="cls-1" d="M733.807,604.071a19.212,19.212,0,0,1-3.955,6.11,18.924,18.924,0,0,1-6,4.208,18.266,18.266,0,0,1-7.55,1.547,18.018,18.018,0,0,1-7.514-1.547,19.242,19.242,0,0,1-5.932-4.135,18.576,18.576,0,0,1-3.919-6.041,19.289,19.289,0,0,1-1.4-7.334v-.145a19.258,19.258,0,0,1,5.359-13.445,19.023,19.023,0,0,1,6-4.208,18.272,18.272,0,0,1,7.55-1.545,18.027,18.027,0,0,1,7.516,1.545,19.326,19.326,0,0,1,5.932,4.136,18.6,18.6,0,0,1,3.919,6.041,19.284,19.284,0,0,1,1.4,7.334v.142A19.314,19.314,0,0,1,733.807,604.071Zm-2.338-7.337a16.557,16.557,0,0,0-1.155-6.189A15.534,15.534,0,0,0,727.1,585.5a14.958,14.958,0,0,0-4.841-3.365,14.7,14.7,0,0,0-5.961-1.217,14.541,14.541,0,0,0-6.034,1.254,14.847,14.847,0,0,0-4.769,3.364,15.3,15.3,0,0,0-3.107,4.975,16.562,16.562,0,0,0-1.119,6.084v.142a16.523,16.523,0,0,0,1.157,6.192,15.478,15.478,0,0,0,3.214,5.047,14.925,14.925,0,0,0,4.842,3.365,14.668,14.668,0,0,0,5.959,1.218,14.5,14.5,0,0,0,6.034-1.254,14.792,14.792,0,0,0,4.769-3.365,15.288,15.288,0,0,0,3.107-4.975,16.56,16.56,0,0,0,1.119-6.083Z" transform="translate(-222.511 -373.278)"/><path class="cls-1" d="M773.966,615.072V593.284a13.237,13.237,0,0,0-3.019-9.1q-3.022-3.411-8.63-3.413a12.83,12.83,0,0,0-5.034.97,12.489,12.489,0,0,0-4.026,2.7,12.208,12.208,0,0,0-2.7,4.135,13.988,13.988,0,0,0-.971,5.283v21.214h-3.524V578.4h3.524v6.832a17.043,17.043,0,0,1,5.034-5.465,13.916,13.916,0,0,1,8.2-2.23,16.258,16.258,0,0,1,6.185,1.115,13.1,13.1,0,0,1,4.638,3.128,13.236,13.236,0,0,1,2.877,4.781,18.3,18.3,0,0,1,.969,6.078v22.434Z" transform="translate(-222.511 -373.278)"/><path class="cls-2" d="M499.659,373.279a84.971,84.971,0,0,0-82.537,62.768,32.876,32.876,0,0,0-.71,14.368c1.121,6.228,4.937,10.18,12.634,6.213a18.766,18.766,0,0,0,5.027-3.892c16.29-17.336,48.59-20.412,63.548-2.734,11.842,3.862,37.075,12.877,24.478,30.633-3.407-8.09-6.659-8.064-13.5-7.792a33.792,33.792,0,0,0-22.132,9.219c-14.308,13.769-8.289,32.047,9.786,42.941,22,13.259,50.375,8.155,67.17-11.277a84.938,84.938,0,0,0-63.766-140.447Z" transform="translate(-222.511 -373.278)"/></svg>